<svg xmlns="http://www.w3.org/2000/svg" xmlns:xlink="http://www.w3.org/1999/xlink" viewBox="0 0 1412.22 1180.96">
  <defs>
    <filter id="shadow">
      <feDropShadow dx="0" dy="0" stdDeviation="0.5"/>
    </filter>
    <style>
      .cls-6{
          filter:url(#shadow)
      }
      .cls-1 {
        fill: #3f3f3f;
      }
      .cls-2 {
        opacity: 0.14;
      }
      .cls-21,
      .cls-22,
      .cls-25,
      .cls-26,
      .cls-3,
      .cls-6 {
        fill: #fff;
      }
      .cls-3,
      .cls-5 {
        opacity: 0.2;
      }
      .cls-13,
      .cls-4,
      .cls-7,
      .cls-8,
      .cls-9 {
        fill: none;
        stroke-miterlimit: 10;
      }
      .cls-13,
      .cls-4 {
        stroke: #fff;
      }
      .cls-7 {
        stroke: #ff8a00;
      }
      .cls-8 {
        stroke: #62bbf0;
      }
      .cls-9 {
        stroke: #92d650;
      }
      .cls-10 {
        fill: url("#linear-gradient");
      }
      .cls-11 {
        fill: url("#linear-gradient-2");
      }
      .cls-12 {
        fill: #363636;
      }
      .cls-13 {
        stroke-width: 6px;
      }
      .cls-14,
      .cls-17,
      .cls-19,
      .cls-21,
      .cls-22 {
        font-size: 36px;
      }
      .cls-14 {
        fill: #ff8a00;
      }
      .cls-14,
      .cls-17,
      .cls-19 {
        font-family: Montserrat-Light, Montserrat;
      }
      .cls-15 {
        letter-spacing: -0.01em;
      }
      .cls-16 {
        letter-spacing: 0;
      }
      .cls-17 {
        fill: #92d650;
      }
      .cls-18 {
        letter-spacing: 0;
      }
      .cls-19 {
        fill: #62bbf0;
      }
      .cls-20,
      .cls-22 {
        opacity: 0.17;
      }
      .cls-21,
      .cls-22 {
        font-family: Saira-Light, Saira;
      }
      .cls-23 {
        opacity: 0.61;
      }
      .cls-24 {
        fill: #f9123e;
      }
      .cls-25 {
        opacity: 0.8;
      }
      .cls-26 {
        font-size: 20px;
        font-family: Montserrat-Medium, Montserrat;
      }
      .cls-27 {
        letter-spacing: 0.01em;
      }
      .cls-28 {
        letter-spacing: -0.02em;
      }
      .cls-29 {
        letter-spacing: 0;
      }
      .cls-30 {
        letter-spacing: 0;
      }
    </style>
    <linearGradient id="linear-gradient" x1="499.68" y1="1358.58" x2="939.08" y2="597.51" gradientUnits="userSpaceOnUse"><stop offset="0" stop-color="#363636" stop-opacity="0"/><stop offset="0.01" stop-color="#363636" stop-opacity="0.23"/><stop offset="0.03" stop-color="#363636" stop-opacity="0.79"/><stop offset="0.04" stop-color="#363636"/><stop offset="0.88" stop-color="#363636"/><stop offset="0.92" stop-color="#363636" stop-opacity="0.79"/><stop offset="0.98" stop-color="#363636" stop-opacity="0.23"/><stop offset="1" stop-color="#363636" stop-opacity="0"/></linearGradient>
    <linearGradient id="linear-gradient-2" x1="66.3" y1="803.32" x2="368.75" y2="487.38" gradientTransform="translate(-336.59 351.66) rotate(-30.75)" gradientUnits="userSpaceOnUse"><stop offset="0.83" stop-color="#363636"/><stop offset="0.88" stop-color="#363636" stop-opacity="0.79"/><stop offset="0.97" stop-color="#363636" stop-opacity="0.23"/><stop offset="1" stop-color="#363636" stop-opacity="0"/></linearGradient>
  </defs>
  <title>plan_ens_bxb_e122</title>
  <g id="Layer_2" data-name="Layer 2">
    <g id="Layer_1-2" data-name="Layer 1"><rect class="cls-1" width="1412.22" height="1180.96"/>
      <g class="cls-2"><polygon class="cls-3" points="657.89 976.22 671.94 948.58 651.23 935.09 523.93 969.55 523.93 969.55 612.46 1021.24 648.82 1008.25 688.7 996.06 657.89 976.22"/><polygon class="cls-4" points="657.89 976.22 671.94 948.58 651.23 935.09 523.93 969.55 523.93 969.55 612.46 1021.24 648.82 1008.25 688.7 996.06 657.89 976.22"/>
        <g class="cls-5"><polygon
          class="cls-6"
          points="651.23 935.09 617.82 913.33 634.18 908.92 595.03 884.38 590.48 885.73 552.03 863.29 555.57 861.61 549.33 857.73 544.78 859.25 540.39 856.38 543.6 854.86 509.53 834.29 505.48 835.64 464.67 812.53 508.18 799.21 475.46 779.48 501.43 753.85 437.52 739.85 427.06 750.47 336.99 732.69 214.41 856.95 226.09 861.5 298.82 838.12 523.93 969.55 523.93 969.55 651.23 935.09"/></g><polygon
          class="cls-7"
          points="651.23 935.09 617.82 913.33 634.18 908.92 595.03 884.38 590.48 885.73 552.03 863.29 555.57 861.61 549.33 857.73 544.78 859.25 540.39 856.38 543.6 854.86 509.53 834.29 505.48 835.64 464.67 812.53 508.18 799.21 475.46 779.48 501.43 753.85 437.52 739.85 427.06 750.47 336.99 732.69 214.41 856.95 226.09 861.5 298.82 838.12 523.93 969.55 523.93 969.55 651.23 935.09"/><polygon class="cls-3" points="1014.4 908.9 1035.15 925.61 1053.27 940.21 1061.4 946.5 1158.56 921.89 973.06 779.61 877.38 803.97 1014.4 908.9"/><polygon class="cls-8" points="1014.4 908.9 1035.15 925.61 1053.27 940.21 1061.4 946.5 1158.56 921.89 973.06 779.61 877.38 803.97 1014.4 908.9"/><polygon
          class="cls-3"
          points="965.32 871.32 896.25 888.89 883.35 879 831.49 892.49 841.98 901.79 786.21 917.68 772.72 907.48 720.85 922.17 733.45 930.87 671.94 948.58 657.89 976.22 688.7 996.06 648.82 1008.25 648.86 1008.28 693.63 1038.77 772.2 1019.29 722.2 985.52 798.82 963.45 815.05 975.13 759.21 991.37 786.48 1012.8 1028.04 952.41 1000.77 928.38 957.26 938.12 942.33 926.43 1014.4 908.9 965.32 871.32"/><polygon
          class="cls-9"
          points="965.32 871.32 896.25 888.89 883.35 879 831.49 892.49 841.98 901.79 786.21 917.68 772.72 907.48 720.85 922.17 733.45 930.87 671.94 948.58 657.89 976.22 688.7 996.06 648.82 1008.25 648.86 1008.28 693.63 1038.77 772.2 1019.29 722.2 985.52 798.82 963.45 815.05 975.13 759.21 991.37 786.48 1012.8 1028.04 952.41 1000.77 928.38 957.26 938.12 942.33 926.43 1014.4 908.9 965.32 871.32"/></g><polygon class="cls-10" points="1345.52 832.94 126.6 1143.19 93.23 1123.16 1312.16 812.9 1345.52 832.94"/><polygon class="cls-11" points="367.18 615.35 1.63 978.24 1.63 939.39 336.76 606.74 367.18 615.35"/><polygon class="cls-12" points="398.79 1180.96 336.02 1180.96 1.63 990.28 1.63 960.63 398.79 1180.96"/><polyline class="cls-13" points="627.29 928.24 688.7 908.59 716.84 928.24 714.38 677.24"/><polygon
          class="cls-7"
          points="226.24 783.78 214.56 779.24 337.14 654.98 427.21 672.76 437.67 662.13 501.58 676.13 475.61 701.76 508.33 721.49 464.82 734.82 505.63 757.92 509.68 756.57 543.75 777.14 540.54 778.66 544.92 781.53 549.48 780.01 555.72 783.89 552.18 785.58 590.63 808.02 595.18 806.66 634.33 831.21 617.97 835.61 651.38 857.37 651.38 857.37 651.38 739.84 480.78 640.6 201.41 641.64 204.11 928.24 489.41 928.24 524.08 891.84 298.97 760.4 226.24 783.78"/><polygon
          class="cls-3"
          points="651.38 857.37 617.97 835.61 634.33 831.21 595.18 806.66 590.63 808.02 552.18 785.58 555.72 783.89 549.48 780.01 544.92 781.53 540.54 778.66 543.75 777.14 509.68 756.57 505.63 757.92 464.82 734.82 508.33 721.49 475.61 701.76 501.58 676.13 437.67 662.13 427.21 672.76 337.14 654.98 214.56 779.24 226.24 783.78 298.97 760.4 524.08 891.84 524.08 891.84 651.38 857.37"/><polygon class="cls-3" points="1053.41 862.49 1061.55 868.79 1158.71 844.17 973.21 701.89 877.52 726.25 996.71 818.57 1013.61 831.41 1014.55 831.18 1035.3 847.89 1053.41 862.49"/><polygon class="cls-4" points="1061.31 868.85 1061.55 868.79 1053.41 862.49 1061.31 868.85"/><polygon class="cls-4" points="658.04 898.5 672.09 870.86 651.38 857.37 524.08 891.84 524.08 891.84 612.61 943.52 648.97 930.53 688.85 918.34 658.04 898.5"/><polygon
          class="cls-3"
          points="772.35 941.57 722.35 907.81 798.97 885.73 815.2 897.42 759.36 913.65 786.63 935.08 1028.19 874.69 1000.92 850.66 957.41 860.4 942.48 848.72 1013.37 831.47 996.71 818.57 942.42 777.3 942.23 777.36 963.55 794.09 896.39 811.18 883.5 801.28 831.64 814.77 842.13 824.07 786.36 839.96 772.87 829.76 721 844.46 733.6 853.15 672.09 870.86 658.04 898.5 688.85 918.34 648.97 930.53 649.01 930.56 693.78 961.05 772.35 941.57"/><polygon class="cls-8" points="854.66 675.9 854.66 708.54 877.52 726.25 973.21 701.89 1158.71 844.17 1061.55 868.79 1075.4 879.52 1228.08 881.33 1228.08 675.9 854.66 675.9"/><polygon class="cls-8" points="1035.3 848.45 1053.41 862.49 1035.3 847.89 1035.3 848.45"/><polygon class="cls-3" points="1013.61 831.41 996.71 818.57 1013.37 831.47 1013.61 831.41"/><polygon class="cls-8" points="1075.4 879.52 877.52 726.25 877.21 726.33 942.23 777.36 942.42 777.3 1075.4 879.52"/><polygon class="cls-9" points="733.6 853.15 721 844.46 772.87 829.76 786.36 839.96 842.13 824.07 831.64 814.77 883.5 801.28 896.39 811.18 962.72 794.04 941.39 777.3 651.38 857.37 672.09 870.86 733.6 853.15"/><polygon
          class="cls-9"
          points="942.48 848.72 957.41 860.4 1000.92 850.66 1028.19 874.69 786.63 935.08 759.36 913.65 815.2 897.42 798.97 885.73 722.35 907.81 772.35 941.57 693.78 961.05 649.01 930.56 708.49 971.13 1035.3 971.13 1034.7 849.05 1012.78 832.07 942.48 848.72"/>
      <text class="cls-14" transform="translate(215.34 917.61)">E<tspan class="cls-15" x="24.08" y="0">r</tspan>
        <tspan x="37.94" y="0">as</tspan>
        <tspan class="cls-16" x="76.14" y="0">m</tspan>
        <tspan x="114.48" y="0">e</tspan>
      </text>
      <text class="cls-17" transform="translate(848.38 961.71)">L<tspan class="cls-18" x="21.06" y="0">h</tspan>
        <tspan x="45.32" y="0">o</tspan>
        <tspan class="cls-16" x="67.64" y="0">m</tspan>
        <tspan x="105.98" y="0">o</tspan>
        <tspan class="cls-18" x="128.3" y="0">n</tspan>
        <tspan x="152.57" y="0">d</tspan>
      </text>
      <text class="cls-19" transform="translate(1037.29 711.71)">G<tspan class="cls-15" x="27.83" y="0">r</tspan>
        <tspan x="41.69" y="0">a</tspan>
        <tspan class="cls-16" x="62.68" y="0">n</tspan>
        <tspan x="86.94" y="0">dHall</tspan>
      </text>
      <g class="cls-20"><polygon class="cls-3" points="1014.4 723.87 1035.15 740.58 1053.27 755.17 1061.4 761.47 1158.56 736.86 973.06 594.58 877.38 618.93 1014.4 723.87"/><polygon class="cls-8" points="1014.4 723.87 1035.15 740.58 1053.27 755.17 1061.4 761.47 1158.56 736.86 973.06 594.58 877.38 618.93 1014.4 723.87"/></g>
      <g class="cls-20"><polygon class="cls-3" points="657.89 405.22 671.94 377.57 651.23 364.09 523.93 398.55 523.93 398.55 612.46 450.24 648.82 437.25 688.7 425.06 657.89 405.22"/><polygon class="cls-4" points="657.89 405.22 671.94 377.57 651.23 364.09 523.93 398.55 523.93 398.55 612.46 450.24 648.82 437.25 688.7 425.06 657.89 405.22"/>
        <g class="cls-5"><polygon
          class="cls-6"
          points="651.23 364.09 617.82 342.33 634.18 337.93 595.03 313.38 590.48 314.73 552.03 292.3 555.57 290.61 549.33 286.73 544.78 288.25 540.39 285.38 543.6 283.86 509.53 263.29 505.48 264.64 464.67 241.53 508.18 228.21 475.46 208.48 501.43 182.84 437.52 168.85 427.06 179.47 336.99 161.69 214.41 285.95 226.09 290.5 298.82 267.12 523.93 398.55 523.93 398.55 651.23 364.09"/></g><polygon
          class="cls-7"
          points="651.23 364.09 617.82 342.33 634.18 337.93 595.03 313.38 590.48 314.73 552.03 292.3 555.57 290.61 549.33 286.73 544.78 288.25 540.39 285.38 543.6 283.86 509.53 263.29 505.48 264.64 464.67 241.53 508.18 228.21 475.46 208.48 501.43 182.84 437.52 168.85 427.06 179.47 336.99 161.69 214.41 285.95 226.09 290.5 298.82 267.12 523.93 398.55 523.93 398.55 651.23 364.09"/><polygon class="cls-3" points="1014.4 337.9 1035.15 354.61 1053.27 369.2 1061.4 375.5 1158.56 350.89 973.06 208.61 877.38 232.97 1014.4 337.9"/><polygon class="cls-8" points="1014.4 337.9 1035.15 354.61 1053.27 369.2 1061.4 375.5 1158.56 350.89 973.06 208.61 877.38 232.97 1014.4 337.9"/><polygon
          class="cls-3"
          points="965.32 300.32 896.25 317.89 883.35 308 831.49 321.49 841.98 330.79 786.21 346.68 772.72 336.48 720.85 351.17 733.45 359.87 671.94 377.57 657.89 405.22 688.7 425.06 648.82 437.25 648.86 437.28 693.63 467.77 772.2 448.29 722.2 414.52 798.82 392.45 815.05 404.13 759.21 420.37 786.48 441.8 1028.04 381.41 1000.77 357.38 957.26 367.12 942.33 355.43 1014.4 337.9 965.32 300.32"/><polygon
          class="cls-9"
          points="965.32 300.32 896.25 317.89 883.35 308 831.49 321.49 841.98 330.79 786.21 346.68 772.72 336.48 720.85 351.17 733.45 359.87 671.94 377.57 657.89 405.22 688.7 425.06 648.82 437.25 648.86 437.28 693.63 467.77 772.2 448.29 722.2 414.52 798.82 392.45 815.05 404.13 759.21 420.37 786.48 441.8 1028.04 381.41 1000.77 357.38 957.26 367.12 942.33 355.43 1014.4 337.9 965.32 300.32"/></g>
      <g class="cls-20"><polygon class="cls-3" points="657.89 368.22 671.94 340.57 651.23 327.09 523.93 361.55 523.93 361.55 612.46 413.24 648.82 400.25 688.7 388.06 657.89 368.22"/><polygon class="cls-4" points="657.89 368.22 671.94 340.57 651.23 327.09 523.93 361.55 523.93 361.55 612.46 413.24 648.82 400.25 688.7 388.06 657.89 368.22"/>
        <g class="cls-5"><polygon
          class="cls-6"
          points="651.23 327.09 617.82 305.33 634.18 300.93 595.03 276.38 590.48 277.73 552.03 255.29 555.57 253.61 549.33 249.73 544.78 251.25 540.39 248.38 543.6 246.86 509.53 226.29 505.48 227.64 464.67 204.53 508.18 191.21 475.46 171.48 501.43 145.84 437.52 131.85 427.06 142.47 336.99 124.69 214.41 248.95 226.09 253.5 298.82 230.12 523.93 361.55 523.93 361.55 651.23 327.09"/></g><polygon
          class="cls-7"
          points="651.23 327.09 617.82 305.33 634.18 300.93 595.03 276.38 590.48 277.73 552.03 255.29 555.57 253.61 549.33 249.73 544.78 251.25 540.39 248.38 543.6 246.86 509.53 226.29 505.48 227.64 464.67 204.53 508.18 191.21 475.46 171.48 501.43 145.84 437.52 131.85 427.06 142.47 336.99 124.69 214.41 248.95 226.09 253.5 298.82 230.12 523.93 361.55 523.93 361.55 651.23 327.09"/><polygon
          class="cls-3"
          points="965.32 263.32 896.25 280.89 883.35 271 831.49 284.49 841.98 293.79 786.21 309.68 772.72 299.48 720.85 314.17 733.45 322.87 671.94 340.57 657.89 368.22 688.7 388.06 648.82 400.25 648.86 400.28 693.63 430.77 772.2 411.29 722.2 377.52 798.82 355.45 815.05 367.13 759.21 383.37 786.48 404.8 1028.04 344.41 1000.77 320.38 957.26 330.12 942.33 318.43 1014.4 300.9 965.32 263.32"/><polygon
          class="cls-9"
          points="965.32 263.32 896.25 280.89 883.35 271 831.49 284.49 841.98 293.79 786.21 309.68 772.72 299.48 720.85 314.17 733.45 322.87 671.94 340.57 657.89 368.22 688.7 388.06 648.82 400.25 648.86 400.28 693.63 430.77 772.2 411.29 722.2 377.52 798.82 355.45 815.05 367.13 759.21 383.37 786.48 404.8 1028.04 344.41 1000.77 320.38 957.26 330.12 942.33 318.43 1014.4 300.9 965.32 263.32"/></g>
      <text class="cls-21" transform="translate(1319.08 803.53)">0</text>
      <g class="cls-20">
        <text class="cls-21" transform="translate(1317.03 892.47)">-1</text>
      </g>
      <text class="cls-22" transform="translate(1329.96 698.6)">1</text>
      <text class="cls-21" transform="translate(1321.42 518.23)">2</text>
      <text class="cls-22" transform="translate(1321.75 326.23)">3</text>
      <text class="cls-22" transform="translate(1320.27 262.23)">4</text>
      <polygon class="cls-3" points="657.89 632.22 671.94 604.58 651.23 591.09 523.93 625.55 523.93 625.55 612.46 677.24 648.82 664.25 688.7 652.06 657.89 632.22"/><polygon class="cls-4" points="657.89 632.22 671.94 604.58 651.23 591.09 523.93 625.55 523.93 625.55 612.46 677.24 648.82 664.25 688.7 652.06 657.89 632.22"/>
      <g class="cls-23"><polygon
        class="cls-6"
        points="651.23 591.09 617.82 569.33 634.18 564.92 595.03 540.38 590.48 541.73 552.03 519.29 555.57 517.61 549.33 513.73 544.78 515.25 540.39 512.38 543.6 510.86 509.53 490.29 505.48 491.64 464.67 468.53 508.18 455.21 475.46 435.48 501.43 409.85 437.52 395.85 427.06 406.47 336.99 388.69 214.41 512.95 226.09 517.5 298.82 494.12 523.93 625.55 523.93 625.55 651.23 591.09"/></g><polygon
        class="cls-7"
        points="651.23 591.09 617.82 569.33 634.18 564.92 595.03 540.38 590.48 541.73 552.03 519.29 555.57 517.61 549.33 513.73 544.78 515.25 540.39 512.38 543.6 510.86 509.53 490.29 505.48 491.64 464.67 468.53 508.18 455.21 475.46 435.48 501.43 409.85 437.52 395.85 427.06 406.47 336.99 388.69 214.41 512.95 226.09 517.5 298.82 494.12 523.93 625.55 523.93 625.55 651.23 591.09"/><polygon class="cls-3" points="1014.4 564.9 1035.15 581.61 1053.27 596.21 1061.4 602.5 1158.56 577.89 973.06 435.61 877.38 459.96 1014.4 564.9"/><polygon class="cls-8" points="1014.4 564.9 1035.15 581.61 1053.27 596.21 1061.4 602.5 1158.56 577.89 973.06 435.61 877.38 459.96 1014.4 564.9"/><polygon
        class="cls-3"
        points="965.32 527.32 896.25 544.89 883.35 535 831.49 548.49 841.98 557.79 786.21 573.68 772.72 563.48 720.85 578.17 733.45 586.87 671.94 604.58 657.89 632.22 688.7 652.06 648.82 664.25 648.86 664.28 693.63 694.77 772.2 675.29 722.2 641.52 798.82 619.45 815.05 631.13 759.21 647.37 786.48 668.8 1028.04 608.41 1000.77 584.38 957.26 594.12 942.33 582.43 1014.4 564.9 965.32 527.32"/><polygon
        class="cls-9"
        points="965.32 527.32 896.25 544.89 883.35 535 831.49 548.49 841.98 557.79 786.21 573.68 772.72 563.48 720.85 578.17 733.45 586.87 671.94 604.58 657.89 632.22 688.7 652.06 648.82 664.25 648.86 664.28 693.63 694.77 772.2 675.29 722.2 641.52 798.82 619.45 815.05 631.13 759.21 647.37 786.48 668.8 1028.04 608.41 1000.77 584.38 957.26 594.12 942.33 582.43 1014.4 564.9 965.32 527.32"/><path
        class="cls-24"
        d="M289.59,453.73c25.77-8.86,59.76-5.27,75.76,8s8,31.25-17.72,40.11-59.76,5.27-75.76-8S263.82,462.58,289.59,453.73Zm47.49,39.34c16.4-5.63,21.46-17.08,11.27-25.52s-31.81-10.72-48.21-5.09S278.67,479.55,288.86,488s31.81,10.72,48.22,5.08"/><rect class="cls-25" x="259.26" y="407.5" width="114.35" height="63.36" rx="23.51" ry="23.51"/><path class="cls-6" d="M277.16,452.32V427.55h17.57v5.08h-11.3v4.64H293v5.08h-9.57v4.89h11.3v5.08Z"/><path class="cls-6" d="M301.9,452.32V434.07L297.29,436V430.9l6.59-3.35h4.28v24.77Z"/><path
        class="cls-6"
        d="M318.74,447.28H330.8v5H312.73v-3.46a35.91,35.91,0,0,1,.23-4.68,5.64,5.64,0,0,1,1.08-2.66,6.74,6.74,0,0,1,2.72-1.87l5.44-2.2a9.4,9.4,0,0,0,1.55-.75,1.66,1.66,0,0,0,.63-.78,4.31,4.31,0,0,0,.16-1.38,2.57,2.57,0,0,0-.36-1.53,1.78,1.78,0,0,0-1.22-.63,17.54,17.54,0,0,0-2.71-.15,57.62,57.62,0,0,0-7,.54v-4.68a39,39,0,0,1,4.22-.59c1.65-.16,3.14-.24,4.49-.24a19.19,19.19,0,0,1,4.68.49,5.38,5.38,0,0,1,3,2,7.22,7.22,0,0,1,1.15,4.41,9.21,9.21,0,0,1-1,4.87,6.16,6.16,0,0,1-3.13,2.43l-3,1.16-3.2,1.26a3,3,0,0,0-1.41.86,1.86,1.86,0,0,0-.28.77,7.67,7.67,0,0,0-.08,1.21Z"/><path
        class="cls-6"
        d="M340.7,447.28h12.06v5H334.69v-3.46a35.91,35.91,0,0,1,.23-4.68,5.64,5.64,0,0,1,1.08-2.66,6.74,6.74,0,0,1,2.72-1.87l5.44-2.2a9.4,9.4,0,0,0,1.55-.75,1.66,1.66,0,0,0,.63-.78,4.62,4.62,0,0,0,.16-1.38,2.57,2.57,0,0,0-.36-1.53,1.78,1.78,0,0,0-1.23-.63,17.3,17.3,0,0,0-2.7-.15,57.9,57.9,0,0,0-7,.54v-4.68a39.61,39.61,0,0,1,4.23-.59c1.65-.16,3.14-.24,4.49-.24a19.19,19.19,0,0,1,4.68.49,5.38,5.38,0,0,1,3,2,7.22,7.22,0,0,1,1.15,4.41,9.21,9.21,0,0,1-1,4.87,6.16,6.16,0,0,1-3.13,2.43l-2.95,1.16-3.2,1.26a3,3,0,0,0-1.41.86,2,2,0,0,0-.29.77,9.38,9.38,0,0,0-.07,1.21Z"/><polygon class="cls-6" points="708.5 677.35 714.44 670.41 720.38 677.35 708.5 677.35"/><polygon class="cls-6" points="438.32 511.65 442.25 509.73 428.82 508.93 426.87 517.29 432.13 514.7 432.08 514.78 588.71 614.93 596.17 612.58 438.32 511.65"/><polygon class="cls-6" points="691.69 974.36 648.49 943.84 639.71 946.66 682.91 977.18 691.69 974.36"/><polygon class="cls-6" points="654.05 943.33 639.47 941.14 636.81 949.91 654.05 943.33"/>
      <text class="cls-26" transform="translate(626.15 1007.62)">Ent<tspan class="cls-27" x="35.3" y="0">r</tspan>
        <tspan x="43.8" y="0">y</tspan>
        <tspan class="cls-28" x="0" y="24">2</tspan>
        <tspan x="11.1" y="24">4 rue L</tspan>
        <tspan class="cls-29" x="81.1" y="24">h</tspan>
        <tspan x="94.78" y="24">o</tspan>
        <tspan class="cls-29" x="107.48" y="24">m</tspan>
        <tspan x="128.68" y="24">o</tspan>
        <tspan class="cls-30" x="141.38" y="24">n</tspan>
        <tspan x="155.06" y="24">d</tspan>
      </text>
    </g>
  </g>
</svg>
